<svg xmlns="http://www.w3.org/2000/svg" viewBox="0 0 35 32"><path d="M17.5 22.5c-1 0-1.8.8-1.8 1.8s.8 1.8 1.8 1.8c.9 0 1.8-.8 1.8-1.8s-.8-1.8-1.8-1.8z"/><path d="M34.2 22.6L22.9 3.1c-1.1-2-3.1-3.1-5.4-3.1s-4.3 1.2-5.4 3.1L.8 22.7c-1.1 2-1.1 4.3 0 6.3C2 30.8 4 32 6.2 32h22.5c2.3 0 4.3-1.2 5.4-3.1 1.2-2 1.2-4.3.1-6.3zm-2.5 4.8c-.6 1.1-1.7 1.7-3 1.7H6.2c-1.2 0-2.3-.6-2.9-1.7-.6-1.1-.6-2.4 0-3.4L14.6 4.5c.6-1.1 1.7-1.7 2.9-1.7s2.3.6 2.9 1.7L31.7 24c.6 1.1.6 2.4 0 3.4z"/><path d="M17.1 9.9c-.9.2-1.4 1-1.4 2 0 .6.1 1.1.1 1.7.1 2.2.2 4.3.4 6.5 0 .7.6 1.3 1.3 1.3s1.3-.6 1.3-1.3v-1.3c.1-1.4.2-2.8.2-4.2 0-.9.1-1.8.2-2.7 0-.3 0-.6-.2-.9-.2-.9-1.1-1.3-1.9-1.1z"/></svg>