<svg width="14" height="14" xmlns="http://www.w3.org/2000/svg"><path d="M7 10.938A3.942 3.942 0 0 1 3.062 7 3.942 3.942 0 0 1 7 3.062 3.942 3.942 0 0 1 10.938 7 3.942 3.942 0 0 1 7 10.938zm0-7A3.066 3.066 0 0 0 3.937 7 3.066 3.066 0 0 0 7 10.063 3.066 3.066 0 0 0 10.063 7 3.066 3.066 0 0 0 7 3.937zm0-1.75a.437.437 0 0 1-.438-.438V.437a.438.438 0 0 1 .875 0V1.75A.437.437 0 0 1 7 2.188zM7 14a.438.438 0 0 1-.438-.438V12.25a.438.438 0 0 1 .875 0v1.313A.438.438 0 0 1 7 14zm6.563-6.562H12.25a.438.438 0 0 1 0-.875h1.313a.438.438 0 0 1 0 .875zm-11.813 0H.437a.438.438 0 0 1 0-.875H1.75a.437.437 0 1 1 0 .875zm8.962-3.712a.438.438 0 0 1-.309-.747l.928-.928a.437.437 0 1 1 .619.619l-.928.928a.436.436 0 0 1-.31.128zM2.36 12.079a.438.438 0 0 1-.31-.747l.929-.929a.438.438 0 0 1 .618.62l-.928.927a.436.436 0 0 1-.31.129zm9.28-.001a.436.436 0 0 1-.31-.129l-.927-.928a.437.437 0 1 1 .618-.618l.928.928a.438.438 0 0 1-.309.747zM3.287 3.726a.436.436 0 0 1-.309-.128L2.05 2.67a.437.437 0 1 1 .619-.619l.928.928a.438.438 0 0 1-.31.747z"/></svg>