<svg width="14" height="14" xmlns="http://www.w3.org/2000/svg"><path d="M10.938 7A3.943 3.943 0 0 1 7 10.938 3.943 3.943 0 0 1 3.062 7 3.943 3.943 0 0 1 7 3.062 3.943 3.943 0 0 1 10.938 7zM7 2.186a.436.436 0 0 1-.438-.438V.438C6.562.195 6.756 0 7 0c.243 0 .438.195.438.438v1.314A.435.435 0 0 1 7 2.186zM7 14a.436.436 0 0 1-.438-.438v-1.314c0-.244.194-.438.438-.438.243 0 .438.194.438.438v1.314A.436.436 0 0 1 7 14zm6.562-6.562h-1.314A.436.436 0 0 1 11.81 7c0-.244.194-.438.438-.438h1.314c.243 0 .438.194.438.438a.436.436 0 0 1-.438.438zm-11.814 0H.438A.436.436 0 0 1 0 7c0-.244.195-.438.438-.438h1.314c.244 0 .439.194.439.438a.44.44 0 0 1-.443.438zm8.966-3.714c-.385 0-.584-.472-.312-.745l.93-.93a.438.438 0 0 1 .618.619l-.93.93a.415.415 0 0 1-.306.126zM2.36 12.077c-.384 0-.584-.472-.311-.745l.93-.93a.438.438 0 0 1 .618.618l-.93.93a.435.435 0 0 1-.307.127zm9.279 0a.455.455 0 0 1-.312-.127l-.93-.93a.438.438 0 0 1 .618-.618l.93.93c.278.273.078.745-.306.745zM3.286 3.724a.455.455 0 0 1-.311-.126l-.925-.93a.438.438 0 0 1 .618-.618l.93.93a.436.436 0 0 1-.312.744z"/></svg>