<svg width="2319" height="2320" viewBox="0 0 2319 2320" fill="none" xmlns="http://www.w3.org/2000/svg">
    <g clip-path="url(#clip0)">
        <g filter="url(#filter0_f)">
            <path opacity="0.3" d="M761 1848.5C919.5 1848.5 1048 1715.9 1048 1552.2C1048 1388.5 919.5 1256 761 1256C602.5 1256 474 1388.6 474 1552.3C474 1716 602.5 1848.5 761 1848.5Z" fill="#ED7155"/>
            <path opacity="0.3" d="M1783 1012.4C1931.6 1012.4 2052 888.101 2052 734.701C2052 581.301 1931.6 457.001 1783 457.001C1634.4 457.001 1514 581.301 1514 734.701C1514 888.101 1634.4 1012.4 1783 1012.4Z" fill="#ED7155"/>
            <path opacity="0.2" d="M1690 2120C1632.3 2120 1576.2 2108.3 1523.2 2085.1C1472.1 2062.8 1426.1 2030.9 1386.7 1990.4C1347.3 1949.8 1316.3 1902.5 1294.7 1849.8C1272.3 1795.2 1260.9 1737.1 1260.9 1677.1C1260.9 1617.1 1272.3 1559 1294.7 1504.4C1316.3 1451.7 1347.3 1404.4 1386.7 1363.8C1426.1 1323.3 1472 1291.4 1523.2 1269.1C1576.2 1246 1632.3 1234.2 1690 1234.2C1747.7 1234.2 1803.8 1245.9 1856.8 1269.1C1907.9 1291.4 1953.9 1323.3 1993.2 1363.8C2032.6 1404.4 2063.6 1451.7 2085.2 1504.4C2107.6 1559 2119 1617.1 2119 1677.1C2119 1737.1 2107.6 1795.2 2085.2 1849.8C2063.6 1902.5 2032.6 1949.8 1993.2 1990.4C1953.8 2030.9 1907.9 2062.8 1856.8 2085.1C1803.8 2108.3 1747.7 2120 1690 2120ZM1690 1434.3C1563.7 1434.3 1461 1543.2 1461 1677.1C1461 1811 1563.7 1919.9 1690 1919.9C1816.3 1919.9 1919 1811 1919 1677.1C1919 1543.2 1816.3 1434.3 1690 1434.3Z" fill="#ED7155"/>
            <path opacity="0.4" d="M399.021 842.582C366.483 842.582 334.847 835.985 304.96 822.902C276.143 810.326 250.203 792.337 227.984 769.498C205.766 746.603 188.284 719.93 176.104 690.211C163.528 659.421 157.1 626.657 157.1 592.822C157.1 558.987 163.528 526.223 176.16 495.433C188.341 465.714 205.822 439.041 228.041 416.146C250.259 393.307 276.143 375.318 305.016 362.743C334.847 349.716 366.483 343.118 399.021 343.118C431.56 343.118 463.196 349.716 493.083 362.799C521.9 375.374 547.84 393.363 570.058 416.202C592.277 439.097 609.758 465.771 621.939 495.489C634.571 526.279 641 559.043 641 592.878C641 626.714 634.571 659.477 621.939 690.267C609.758 719.986 592.277 746.66 570.058 769.555C547.84 792.393 521.956 810.383 493.083 822.958C463.196 835.928 431.56 842.582 399.021 842.582ZM399.021 455.902C327.798 455.902 269.884 517.313 269.884 592.822C269.884 668.331 327.798 729.742 399.021 729.742C470.245 729.742 528.159 668.331 528.159 592.822C528.159 517.313 470.245 455.902 399.021 455.902Z" fill="#ED7155"/>
            <path opacity="0.2" d="M1725 1388.1C1934.9 1388.1 2105 1226.8 2105 1027.8C2105 828.8 1934.9 667.5 1725 667.5C1515.1 667.5 1345 828.8 1345 1027.8C1345 1226.8 1515.1 1388.1 1725 1388.1Z" fill="#5BB0FF"/>
            <path opacity="0.2" d="M598 1467C833.861 1467 1025 1285.69 1025 1062C1025 838.311 833.861 657 598 657C362.139 657 171 838.311 171 1062C171 1285.69 362.139 1467 598 1467Z" fill="#5BB0FF"/>
            <path opacity="0.2" d="M1687 1863C1864.3 1863 2008 1726.9 2008 1559C2008 1391.1 1864.3 1255 1687 1255C1509.7 1255 1366 1391.1 1366 1559C1366 1726.9 1509.7 1863 1687 1863Z" fill="#6AD5ED"/>
            <path opacity="0.2" d="M946 1786.6C1155.9 1786.6 1326 1625.5 1326 1426.9C1326 1228.3 1155.9 1067.1 946 1067.1C736.1 1067.1 566 1228.2 566 1426.8C566 1625.4 736.1 1786.6 946 1786.6Z" fill="#6AD5ED"/>
            <path opacity="0.2" d="M1046.5 1535.3C1328.4 1535.3 1557 1318.8 1557 1051.7C1557 784.601 1328.4 568.101 1046.5 568.101C764.6 568.101 536 784.601 536 1051.7C536 1318.8 764.6 1535.3 1046.5 1535.3Z" fill="#5BB0FF"/>
        </g>
    </g>
    <defs>
        <filter id="filter0_f" x="-42.9004" y="143.118" width="2361.9" height="2176.88" filterUnits="userSpaceOnUse" color-interpolation-filters="sRGB">
            <feFlood flood-opacity="0" result="BackgroundImageFix"/>
            <feBlend mode="normal" in="SourceGraphic" in2="BackgroundImageFix" result="shape"/>
            <feGaussianBlur stdDeviation="100" result="effect1_foregroundBlur"/>
        </filter>
        <clipPath id="clip0">
            <rect width="2319" height="2320" fill="white"/>
        </clipPath>
    </defs>
</svg>
