<svg xmlns="http://www.w3.org/2000/svg" width="72" height="72" viewBox="0 0 72 72"><path fill="#FF9600" d="M36 72l36-28V16L54 2 36 16 18 2 0 16v28"/><path fill="#BC1B00" d="M17.907 57.928L36 72l18.093-14.072L36 44"/><g><path fill="#FFC600" d="M18 2v28L0 16"/><path fill="#FF9000" d="M18 30v28L0 44"/><path fill="#FF7200" d="M36 16v28L18 30"/><path fill="#FFCE25" d="M54 2v28L36 16"/><path fill="#E12D1A" d="M54 30v28L36 44"/><path fill="#BC1B00" d="M36 44v28L18 58"/><path fill="#FFC600" d="M72 16v28L54 30"/><path fill="#FF8A00" d="M54 30v28l18-14"/><path fill="#FFE748" d="M54 2v28l18-14"/><path fill="#FF9600" d="M36 16v28l18-14"/><path fill="#FF9C00" d="M18 2v28l18-14"/><path fill="#DD2A00" d="M18 30v28l18-14"/><path fill="#B1150A" d="M36 44v28l18-14"/><path fill="#FFA800" d="M0 16v28l18-14"/></g></svg>